<?xml version="1.0" encoding="utf-8"?>
<!-- Generator: Adobe Illustrator 22.0.1, SVG Export Plug-In . SVG Version: 6.00 Build 0)  -->
<svg version="1.1" id="Layer_1" xmlns="http://www.w3.org/2000/svg" xmlns:xlink="http://www.w3.org/1999/xlink" x="0px" y="0px"
	 viewBox="0 0 280 280" style="enable-background:new 0 0 280 280;" xml:space="preserve">
<style type="text/css">
	.st0{fill:url(#SVGID_1_);}
	.st1{fill:url(#SVGID_2_);}
</style>
<radialGradient id="SVGID_1_" cx="140" cy="140" r="140" gradientTransform="matrix(1.075 0 0 1.075 -11 -11)" gradientUnits="userSpaceOnUse">
	<stop  offset="0" style="stop-color:#3083C9"/>
	<stop  offset="1" style="stop-color:#1E74BD"/>
</radialGradient>
<rect x="-11" y="-11" class="st0" width="301" height="301"/>
<linearGradient id="SVGID_2_" gradientUnits="userSpaceOnUse" x1="66.3473" y1="66.3477" x2="213.652" y2="213.6524">
	<stop  offset="0" style="stop-color:#FFFFFF"/>
	<stop  offset="1" style="stop-color:#DEDEDE"/>
</linearGradient>
<path class="st1" d="M180.2,236.1H99.8c-9.5,0-18.3-5.1-23-13.3l-40.2-69.6c-4.7-8.2-4.7-18.4,0-26.5l40.2-69.6
	c4.7-8.2,13.5-13.3,23-13.3h80.4c9.5,0,18.3,5.1,23,13.3l40.2,69.6c4.7,8.2,4.7,18.4,0,26.5l-40.2,69.6
	C198.4,231.1,189.6,236.1,180.2,236.1z M99.8,50.9c-7,0-13.4,3.7-16.9,9.8l-40.2,69.6c-3.5,6-3.5,13.5,0,19.5l40.2,69.6
	c3.5,6,10,9.8,16.9,9.8h80.4c7,0,13.4-3.7,16.9-9.8l40.2-69.6c3.5-6,3.5-13.5,0-19.5l-40.2-69.6c-3.5-6-10-9.8-16.9-9.8H99.8z
	 M140,189.8c-27.5,0-49.8-22.3-49.8-49.8s22.3-49.8,49.8-49.8s49.8,22.3,49.8,49.8S167.5,189.8,140,189.8z M140,97.2
	c-23.6,0-42.8,19.2-42.8,42.8s19.2,42.8,42.8,42.8s42.8-19.2,42.8-42.8S163.6,97.2,140,97.2z"/>
</svg>
